# xmcd
#
# Track frame offsets:
#	150
#	19652
#	38932
#	57907
#	72532
#	87887
#	107665
#	127377
#	149615
#	167642
#	185525
#	204167
#
# Disc length: 3025 seconds
#
# Revision: 1
# Processed by: cddbd v1.5.2PL0 Copyright (c) Steve Scherf et al.
# Submitted via: audiograbber 1.82.01
#
DISCID=b00bcf0c
DTITLE=Ward, Ralph - Zero Option - Catalyst
DYEAR=1993
DGENRE=Pop
TTITLE0=Son Of The Living God
TTITLE1=When The World Hates You
TTITLE2=Trip To Heaven
TTITLE3=Fruits Of The Spirit
TTITLE4=Share The Emotion
TTITLE5=Drop The Gun
TTITLE6=Get Your Head Together
TTITLE7=Rezurrection
TTITLE8=Failure
TTITLE9=Walk Into The Light
TTITLE10=Love One Another
TTITLE11=Your Love Is Amazing
EXTD=
EXTT0=
EXTT1=
EXTT2=
EXTT3=
EXTT4=
EXTT5=
EXTT6=
EXTT7=
EXTT8=
EXTT9=
EXTT10=
EXTT11=
PLAYORDER=
